<mxfile host="65bd71144e">
    <diagram id="JqOo338mFjRoOCTTENWM" name="Page-1">
        <mxGraphModel dx="1074" dy="709" grid="1" gridSize="10" guides="1" tooltips="1" connect="1" arrows="1" fold="1" page="1" pageScale="1" pageWidth="827" pageHeight="1169" math="0" shadow="0">
            <root>
                <mxCell id="0"/>
                <mxCell id="1" parent="0"/>
                <mxCell id="16" style="edgeStyle=none;rounded=0;html=1;exitX=0.5;exitY=1;exitDx=0;exitDy=0;exitPerimeter=0;entryX=0.5;entryY=0;entryDx=0;entryDy=0;" edge="1" parent="1" source="17" target="19">
                    <mxGeometry relative="1" as="geometry">
                        <mxPoint x="273" y="190" as="targetPoint"/>
                    </mxGeometry>
                </mxCell>
                <mxCell id="17" value="Start" style="strokeWidth=2;html=1;shape=mxgraph.flowchart.terminator;whiteSpace=wrap;" vertex="1" parent="1">
                    <mxGeometry x="230" y="110" width="100" height="60" as="geometry"/>
                </mxCell>
                <mxCell id="18" style="edgeStyle=none;rounded=0;html=1;" edge="1" parent="1" source="19" target="28">
                    <mxGeometry relative="1" as="geometry"/>
                </mxCell>
                <mxCell id="19" value="get&lt;br&gt;integer_input_string" style="shape=parallelogram;html=1;strokeWidth=2;perimeter=parallelogramPerimeter;whiteSpace=wrap;rounded=1;arcSize=12;size=0.23;" vertex="1" parent="1">
                    <mxGeometry x="191.88" y="200" width="176.25" height="60" as="geometry"/>
                </mxCell>
                <mxCell id="20" value="Stop" style="strokeWidth=2;html=1;shape=mxgraph.flowchart.terminator;whiteSpace=wrap;" vertex="1" parent="1">
                    <mxGeometry x="368.13" y="1030" width="100" height="60" as="geometry"/>
                </mxCell>
                <mxCell id="21" style="edgeStyle=none;html=1;exitX=0.5;exitY=1;exitDx=0;exitDy=0;exitPerimeter=0;entryX=0.5;entryY=0;entryDx=0;entryDy=0;" edge="1" parent="1" source="23" target="38">
                    <mxGeometry relative="1" as="geometry"/>
                </mxCell>
                <mxCell id="22" style="edgeStyle=none;rounded=0;html=1;exitX=1;exitY=0.5;exitDx=0;exitDy=0;exitPerimeter=0;entryX=0.5;entryY=0;entryDx=0;entryDy=0;entryPerimeter=0;" edge="1" parent="1" source="23" target="20">
                    <mxGeometry relative="1" as="geometry">
                        <Array as="points">
                            <mxPoint x="418" y="745"/>
                        </Array>
                    </mxGeometry>
                </mxCell>
                <mxCell id="23" value="for number_squared&lt;br&gt;= 0;&amp;nbsp; number_squared &amp;lt; integer_input + 1;&lt;br&gt;number_squared++;" style="strokeWidth=2;html=1;shape=mxgraph.flowchart.decision;whiteSpace=wrap;" vertex="1" parent="1">
                    <mxGeometry x="197.25" y="660" width="165.5" height="170" as="geometry"/>
                </mxCell>
                <mxCell id="24" style="edgeStyle=none;html=1;exitX=0.5;exitY=1;exitDx=0;exitDy=0;entryX=1;entryY=0.5;entryDx=0;entryDy=0;entryPerimeter=0;rounded=0;" edge="1" parent="1" source="25" target="20">
                    <mxGeometry relative="1" as="geometry">
                        <Array as="points">
                            <mxPoint x="621" y="1060"/>
                        </Array>
                    </mxGeometry>
                </mxCell>
                <mxCell id="25" value="print &quot;Invalid Integer, please try again.&quot;" style="shape=parallelogram;html=1;strokeWidth=2;perimeter=parallelogramPerimeter;whiteSpace=wrap;rounded=1;arcSize=12;size=0.23;" vertex="1" parent="1">
                    <mxGeometry x="540" y="410" width="161" height="79" as="geometry"/>
                </mxCell>
                <mxCell id="26" style="edgeStyle=none;html=1;entryX=0.5;entryY=0;entryDx=0;entryDy=0;rounded=0;" edge="1" parent="1" source="28" target="25">
                    <mxGeometry relative="1" as="geometry">
                        <Array as="points">
                            <mxPoint x="621" y="340"/>
                        </Array>
                    </mxGeometry>
                </mxCell>
                <mxCell id="27" style="edgeStyle=none;rounded=0;html=1;" edge="1" parent="1" source="28" target="32">
                    <mxGeometry relative="1" as="geometry"/>
                </mxCell>
                <mxCell id="28" value="Try" style="strokeWidth=2;html=1;shape=mxgraph.flowchart.decision;whiteSpace=wrap;" vertex="1" parent="1">
                    <mxGeometry x="230" y="290" width="100" height="100" as="geometry"/>
                </mxCell>
                <mxCell id="29" value="Yes&lt;br&gt;" style="text;html=1;align=center;verticalAlign=middle;resizable=0;points=[];autosize=1;strokeColor=none;fillColor=none;" vertex="1" parent="1">
                    <mxGeometry x="290" y="631.48" width="40" height="20" as="geometry"/>
                </mxCell>
                <mxCell id="30" value="Exception" style="text;html=1;align=center;verticalAlign=middle;resizable=0;points=[];autosize=1;strokeColor=none;fillColor=none;" vertex="1" parent="1">
                    <mxGeometry x="330" y="310" width="70" height="20" as="geometry"/>
                </mxCell>
                <mxCell id="31" style="edgeStyle=none;rounded=0;html=1;exitX=0.5;exitY=1;exitDx=0;exitDy=0;entryX=0.5;entryY=0;entryDx=0;entryDy=0;entryPerimeter=0;" edge="1" parent="1" source="32" target="41">
                    <mxGeometry relative="1" as="geometry"/>
                </mxCell>
                <mxCell id="32" value="&lt;span&gt;convert integer_input_string to int&lt;/span&gt;" style="rounded=1;whiteSpace=wrap;html=1;absoluteArcSize=1;arcSize=14;strokeWidth=2;" vertex="1" parent="1">
                    <mxGeometry x="214.62" y="420" width="130.75" height="50" as="geometry"/>
                </mxCell>
                <mxCell id="33" value="print &quot;number_squaredÂ² &lt;br&gt;= answer&quot;" style="shape=parallelogram;html=1;strokeWidth=2;perimeter=parallelogramPerimeter;whiteSpace=wrap;rounded=1;arcSize=12;size=0.23;" vertex="1" parent="1">
                    <mxGeometry x="184.5" y="940" width="191" height="70" as="geometry"/>
                </mxCell>
                <mxCell id="34" value="No" style="text;html=1;align=center;verticalAlign=middle;resizable=0;points=[];autosize=1;strokeColor=none;fillColor=none;" vertex="1" parent="1">
                    <mxGeometry x="350" y="540" width="30" height="20" as="geometry"/>
                </mxCell>
                <mxCell id="35" value="Yes&lt;br&gt;" style="text;html=1;align=center;verticalAlign=middle;resizable=0;points=[];autosize=1;strokeColor=none;fillColor=none;" vertex="1" parent="1">
                    <mxGeometry x="290" y="390" width="40" height="20" as="geometry"/>
                </mxCell>
                <mxCell id="36" style="edgeStyle=none;html=1;entryX=0;entryY=0.5;entryDx=0;entryDy=0;entryPerimeter=0;rounded=0;exitX=0.5;exitY=1;exitDx=0;exitDy=0;" edge="1" parent="1" source="33" target="23">
                    <mxGeometry relative="1" as="geometry">
                        <mxPoint x="280" y="1050" as="sourcePoint"/>
                        <Array as="points">
                            <mxPoint x="280" y="1050"/>
                            <mxPoint x="170" y="1050"/>
                            <mxPoint x="170" y="950"/>
                            <mxPoint x="170" y="745"/>
                        </Array>
                    </mxGeometry>
                </mxCell>
                <mxCell id="37" style="edgeStyle=none;rounded=0;html=1;exitX=0.5;exitY=1;exitDx=0;exitDy=0;entryX=0.5;entryY=0;entryDx=0;entryDy=0;" edge="1" parent="1" source="38" target="33">
                    <mxGeometry relative="1" as="geometry"/>
                </mxCell>
                <mxCell id="38" value="answer = number_squared * number_squared" style="rounded=1;whiteSpace=wrap;html=1;absoluteArcSize=1;arcSize=14;strokeWidth=2;" vertex="1" parent="1">
                    <mxGeometry x="214.63" y="860" width="130.75" height="50" as="geometry"/>
                </mxCell>
                <mxCell id="39" style="edgeStyle=none;rounded=0;html=1;exitX=1;exitY=0.5;exitDx=0;exitDy=0;exitPerimeter=0;entryX=0.5;entryY=0;entryDx=0;entryDy=0;" edge="1" parent="1" source="41" target="43">
                    <mxGeometry relative="1" as="geometry">
                        <mxPoint x="560.0000000000001" y="632.608695652174" as="targetPoint"/>
                        <Array as="points">
                            <mxPoint x="521" y="566"/>
                        </Array>
                    </mxGeometry>
                </mxCell>
                <mxCell id="40" style="edgeStyle=none;html=1;exitX=0.5;exitY=1;exitDx=0;exitDy=0;exitPerimeter=0;entryX=0.5;entryY=0;entryDx=0;entryDy=0;entryPerimeter=0;" edge="1" parent="1" source="41" target="23">
                    <mxGeometry relative="1" as="geometry"/>
                </mxCell>
                <mxCell id="41" value="if integer_input&lt;br&gt;=&amp;gt; 0" style="strokeWidth=2;html=1;shape=mxgraph.flowchart.decision;whiteSpace=wrap;" vertex="1" parent="1">
                    <mxGeometry x="213.12" y="500" width="133.75" height="131.48" as="geometry"/>
                </mxCell>
                <mxCell id="42" style="edgeStyle=none;rounded=0;html=1;exitX=0.5;exitY=1;exitDx=0;exitDy=0;entryX=1;entryY=0.5;entryDx=0;entryDy=0;entryPerimeter=0;" edge="1" parent="1" source="43" target="20">
                    <mxGeometry relative="1" as="geometry">
                        <Array as="points">
                            <mxPoint x="521" y="1060"/>
                        </Array>
                    </mxGeometry>
                </mxCell>
                <mxCell id="43" value="print &quot;Invalid, only positive integers accepted.&quot;" style="shape=parallelogram;html=1;strokeWidth=2;perimeter=parallelogramPerimeter;whiteSpace=wrap;rounded=1;arcSize=12;size=0.23;" vertex="1" parent="1">
                    <mxGeometry x="440" y="610" width="161" height="79" as="geometry"/>
                </mxCell>
                <mxCell id="44" value="No" style="text;html=1;align=center;verticalAlign=middle;resizable=0;points=[];autosize=1;strokeColor=none;fillColor=none;" vertex="1" parent="1">
                    <mxGeometry x="355.5" y="710" width="30" height="20" as="geometry"/>
                </mxCell>
                <mxCell id="45" value="Yes&lt;br&gt;" style="text;html=1;align=center;verticalAlign=middle;resizable=0;points=[];autosize=1;strokeColor=none;fillColor=none;" vertex="1" parent="1">
                    <mxGeometry x="290" y="830" width="40" height="20" as="geometry"/>
                </mxCell>
            </root>
        </mxGraphModel>
    </diagram>
</mxfile>